<svg version="1.1" xmlns="http://www.w3.org/2000/svg" xmlns:xlink="http://www.w3.org/1999/xlink" width="286.00417" height="221.67803" viewBox="0,0,286.00417,221.67803"><g transform="translate(-100.46667,-49.63333)"><g data-paper-data="{&quot;isPaintingLayer&quot;:true}" fill="#ffffff" fill-rule="nonzero" stroke="#000000" stroke-width="0" stroke-linecap="butt" stroke-linejoin="miter" stroke-miterlimit="10" stroke-dasharray="" stroke-dashoffset="0" style="mix-blend-mode: normal"><g><path d="M276.52311,269.87901v-99.71635l19.60853,-24.5876v124.30395z"/><path d="M190.38572,271.31136v-179.27779h19.60852v179.27779z"/><path d="M110.55106,91.65158h99.44318v19.60849h-99.44318z"/><path d="M235.20518,269.91081v-125.70454h19.60848v125.70454z"/><path d="M366.86233,111.64205v-61.83682h19.60852v61.83682z"/><path d="M100.46668,110.80168v-60.78636h19.60849v60.78636z"/><path d="M101.30704,49.63334h147.34398l-24.37058,19.60849h-122.97335z"/><path d="M287.02767,91.65158h97.34227v19.60849h-97.34227z"/><path d="M234.61407,88.46168l39.22252,-38.38148l13.78211,13.94796l-53.02851,52.18747z"/><path d="M273.58183,49.63334h107.42664l-0.19664,19.60849h-107.22996z"/><path d="M234.61407,145.1863l51.82799,-52.03744l13.78211,13.948l-51.82799,52.03741z"/><path d="M235.55532,250.27048h56.37448v19.60849h-56.37448z"/></g></g></g></svg>